<?xml version="1.0" encoding="utf-8"?>
<!-- Generator: Adobe Illustrator 24.0.0, SVG Export Plug-In . SVG Version: 6.00 Build 0)  -->
<svg version="1.1" id="Curves" xmlns="http://www.w3.org/2000/svg" xmlns:xlink="http://www.w3.org/1999/xlink" x="0px" y="0px"
	 viewBox="0 0 270.9 52.5" style="enable-background:new 0 0 270.9 52.5;" xml:space="preserve">
<style type="text/css">
	.st0{fill:#FFFFFF;}
	.st1{fill:#E75300;}
</style>
<title>CLB_Logo_No_Tag_2Color_Rev_rgb</title>
<path class="st0" d="M90.6,52.5c-3.5,0.1-6.8-1.3-9.3-3.8c-3.5-3.5-3.4-7.1-3.4-13s-0.1-9.9,3.4-13.4c2.4-2.5,5.8-3.8,9.3-3.8
	c6.4,0,11.5,3.7,12.7,10.9h-6.8c-0.7-2.8-2.4-4.9-5.8-4.9c-1.6-0.1-3.2,0.6-4.3,1.8c-1.3,1.5-1.7,2.7-1.7,9.4s0.4,7.5,1.7,9
	c1.1,1.2,2.7,1.9,4.3,1.8c3.4,0,5.1-2.1,5.8-4.9h6.8C102.1,48.8,97,52.5,90.6,52.5z"/>
<path class="st0" d="M198.2,50.2c-1.7,1.5-3.9,2.3-6.1,2.3c-2.4,0.1-4.7-0.8-6.3-2.7v2.4h-6.1v-33h6.3v10c1.5-1.7,3.8-2.7,6.1-2.5
	c2.3-0.1,4.5,0.8,6.2,2.3c2.5,2.5,2.6,6.8,2.6,10.6S200.8,47.7,198.2,50.2z M190.2,32.4c-3.8,0-4.3,3.1-4.3,7.2s0.5,7.2,4.3,7.2
	s4.2-3.1,4.2-7.2S194,32.4,190.2,32.4L190.2,32.4z"/>
<path class="st0" d="M222.4,24.8V19h6.4v5.8L222.4,24.8z M222.5,52.2V27h6.3v25.2H222.5z"/>
<path class="st0" d="M242.4,52.2c-5.1,0-7.3-3.6-7.3-7.2V31.8h-2.7V27h2.7v-8h6.3v8h4.5v4.8h-4.5v12.8c0,1.5,0.7,2.3,2.2,2.3h2.3
	v5.3H242.4z"/>
<path class="st0" d="M124.8,41.5h3.2c0-0.6,0.1-1.3,0.1-2c0-4.5-0.6-7.4-2.9-9.8c-2.2-2.1-5.1-3.2-8.1-3.1c-3-0.1-5.9,1-8,3.1
	c-2.3,2.4-2.9,5.2-2.9,9.8s0.6,7.4,2.9,9.8c2.1,2.1,5,3.2,8,3.1c3,0.1,5.9-1,8.1-3.1c1.2-1.2,2-2.7,2.4-4.4h-6.4
	c-0.2,0.4-0.5,0.7-0.8,1c-0.9,0.8-2.1,1.2-3.3,1.2c-1.2,0.1-2.3-0.3-3.2-1.1c-1.1-1-1.5-2.6-1.6-4.5L124.8,41.5L124.8,41.5z
	 M117.1,32c1.2-0.1,2.4,0.4,3.3,1.2c1,1.1,1.6,2.6,1.6,4.1h-9.8c0-1.5,0.6-3,1.6-4.1C114.7,32.4,115.9,31.9,117.1,32z"/>
<path class="st0" d="M172.6,41.5h3.2c0-0.6,0-1.3,0-2c0-4.5-0.6-7.4-2.9-9.8c-2.1-2.1-5.1-3.2-8.1-3.1c-3-0.1-5.9,1-8,3.1
	c-2.3,2.4-2.9,5.2-2.9,9.8s0.6,7.4,2.9,9.8c2.1,2.1,5,3.2,8,3.1c3,0.1,5.9-1,8.1-3.1c1.2-1.2,2-2.7,2.4-4.4H169
	c-0.2,0.4-0.5,0.7-0.8,1c-0.9,0.8-2.1,1.2-3.3,1.2c-1.2,0.1-2.4-0.3-3.3-1.1c-1.1-1-1.5-2.6-1.6-4.5L172.6,41.5L172.6,41.5z
	 M164.9,32c1.2-0.1,2.4,0.4,3.3,1.2c1,1.1,1.6,2.6,1.6,4.1H160c0-1.5,0.5-3,1.6-4.1C162.5,32.4,163.6,31.9,164.9,32z"/>
<path class="st0" d="M267.6,41.5h3.2c0-0.6,0.1-1.3,0.1-2c0-4.5-0.6-7.4-2.9-9.8c-2.2-2.1-5.1-3.2-8.1-3.1c-3-0.1-5.9,1-8,3.1
	c-2.3,2.4-2.9,5.2-2.9,9.8s0.6,7.4,2.9,9.8c2.1,2.1,5,3.2,8,3.1c3,0.1,5.9-1,8.1-3.1c1.2-1.2,2-2.7,2.4-4.4H264
	c-0.2,0.4-0.5,0.7-0.8,1c-0.9,0.8-2.1,1.2-3.3,1.2c-1.2,0.1-2.4-0.4-3.2-1.2c-1.1-1-1.5-2.6-1.6-4.5L267.6,41.5L267.6,41.5z
	 M259.9,32c1.2-0.1,2.4,0.4,3.3,1.2c1,1.1,1.6,2.6,1.6,4.1h-9.8c0-1.5,0.6-3,1.6-4.1C257.5,32.4,258.7,31.9,259.9,32z"/>
<rect x="132.1" y="19.2" class="st0" width="6.3" height="33"/>
<rect x="143.8" y="19.2" class="st0" width="6.3" height="33"/>
<path class="st0" d="M219,26.4L219,26.4c-1.9-0.1-3.6,0.5-5,1.6c-1.1,1-2,2.2-2.7,3.5V27h-6.4v25.2h6.8V39.9c-0.1-1.4,0.2-2.8,0.8-4
	c0.9-1.8,2.7-2.6,5.4-2.6h0.8h0.3L219,26.4z"/>
<circle class="st0" cx="41.7" cy="30.1" r="3"/>
<circle class="st0" cx="22.9" cy="47.9" r="4.9"/>
<circle class="st0" cx="4.9" cy="29.3" r="4.9"/>
<circle class="st0" cx="22.7" cy="10.9" r="3.1"/>
<circle class="st0" cx="36.3" cy="16.3" r="2.7"/>
<circle class="st0" cx="9.5" cy="16.9" r="4"/>
<circle class="st0" cx="10.1" cy="42.4" r="5.2"/>
<circle class="st0" cx="35.6" cy="43.2" r="4"/>
<polygon class="st1" points="53.4,10 58.9,7.9 53.5,5.9 51.3,0 49.2,5.8 43.4,7.9 49.3,10.1 51.3,15.6 "/>
</svg>
